<svg width="15" height="15" viewBox="0 0 15 15" fill="none" xmlns="http://www.w3.org/2000/svg">
<path d="M5.55 7.5L6.85 8.8L9.775 5.875M4.46695 2.18215C4.98944 2.14046 5.48546 1.935 5.8844 1.59502C6.81537 0.801659 8.18463 0.801659 9.11559 1.59502C9.51454 1.935 10.0106 2.14046 10.533 2.18215C11.7523 2.27945 12.7205 3.24766 12.8178 4.46695C12.8595 4.98944 13.065 5.48546 13.405 5.8844C14.1983 6.81537 14.1983 8.18463 13.405 9.11559C13.065 9.51454 12.8595 10.0106 12.8178 10.533C12.7205 11.7523 11.7523 12.7205 10.533 12.8178C10.0106 12.8595 9.51454 13.065 9.11559 13.405C8.18463 14.1983 6.81537 14.1983 5.8844 13.405C5.48546 13.065 4.98944 12.8595 4.46695 12.8178C3.24766 12.7205 2.27945 11.7523 2.18215 10.533C2.14046 10.0106 1.935 9.51454 1.59502 9.11559C0.801659 8.18463 0.801659 6.81537 1.59502 5.8844C1.935 5.48546 2.14046 4.98944 2.18215 4.46695C2.27945 3.24766 3.24766 2.27945 4.46695 2.18215Z" stroke="#6F2DA8" stroke-linecap="round" stroke-linejoin="round"/>
</svg>
